<svg width="48" height="42" viewBox="0 0 48 42" fill="none" xmlns="http://www.w3.org/2000/svg">
<rect width="48" height="42"/>
<g id="&#229;&#183;&#165;&#228;&#189;&#156;&#229;&#143;&#176;">
<g clip-path="url(#clip0_0_1)">
<rect x="-35" y="-277" width="1920" height="1080" rx="25"/>
<path id="Rectangle 1" d="M-84.3918 -236.331C-84.3276 -250.269 -84.2955 -257.237 -81.5634 -262.559C-79.1599 -267.24 -75.3406 -271.043 -70.6495 -273.427C-65.3167 -276.138 -58.348 -276.141 -44.4105 -276.147L888.257 -276.574L1412.4 -276.814L1896.34 -277.036C1910.4 -277.042 1917.44 -277.046 1922.8 -274.306C1927.52 -271.896 1931.34 -268.051 1933.73 -263.324C1936.45 -257.95 1936.42 -250.917 1936.36 -236.852L1931.75 763.007C1931.69 776.944 1931.66 783.912 1928.92 789.233C1926.52 793.915 1922.7 797.718 1918.01 800.102C1912.68 802.812 1905.71 802.816 1891.77 802.823L-48.9755 803.81C-63.0416 803.817 -70.0746 803.821 -75.4377 801.081C-80.1548 798.671 -83.9847 794.826 -86.375 790.099C-89.0925 784.725 -89.0602 777.692 -88.9954 763.626L-84.3918 -236.331Z"/>
<g id="Group 2">
<g id="calendar-check-line (1) 1">
<path id="Vector" d="M18 2.52087V5.93754H30V2.52087H34V5.93754H42C43.1046 5.93754 44 6.7024 44 7.64587V34.9792C44 35.9227 43.1046 36.6875 42 36.6875H6C4.89544 36.6875 4 35.9227 4 34.9792V7.64587C4 6.7024 4.89544 5.93754 6 5.93754H14V2.52087H18ZM40 17.8959H8V33.2709H40V17.8959ZM30.071 19.8365L32.8994 22.2526L23 30.7084L15.9289 24.6686L18.7574 22.2526L23 25.8765L30.071 19.8365ZM14 9.35421H8V14.4792H40V9.35421H34V11.0625H30V9.35421H18V11.0625H14V9.35421Z" fill="currentColor"/>
</g>
</g>
</g>
</g>
<defs>
<clipPath id="clip0_0_1">
<rect x="-35" y="-277" width="1920" height="1080" rx="25"/>
</clipPath>
</defs>
</svg>
