<?xml version="1.0" standalone="no"?>
<!DOCTYPE svg PUBLIC "-//W3C//DTD SVG 1.1//EN" "http://www.w3.org/Graphics/SVG/1.1/DTD/svg11.dtd"><svg t="1708827867036"
    class="icon" viewBox="0 0 1024 1024" version="1.1" xmlns="http://www.w3.org/2000/svg" p-id="4312"
    xmlns:xlink="http://www.w3.org/1999/xlink" width="200" height="200">
    <path
        d="M928 288H96v384h160v224h512V672h160zM704 832H320V544h384z m160-224h-96v-128H256v128h-96V352h704zM320 192h384v64h64V128H256v128h64v-64z"
        fill="#389E79" p-id="4313"></path>
    <path d="M384 608h256v64H384zM384 704h256v64H384z" fill="#389E79" p-id="4314"></path>
    <path d="M800 416m-32 0a32 32 0 1 0 64 0 32 32 0 1 0-64 0Z" fill="#389E79" p-id="4315"></path>
</svg>