<svg width="48" height="42" viewBox="0 0 48 42" fill="none" xmlns="http://www.w3.org/2000/svg">
<path d="M40.1666 18.7497L42.5708 19.9819C43.0442 20.2246 43.1978 20.7493 42.9138 21.1538C42.8292 21.2739 42.7114 21.3745 42.5708 21.4468L23.9998 30.9643L5.42902 21.4468C4.95544 21.204 4.80186 20.6794 5.08602 20.2749C5.17046 20.1546 5.28826 20.054 5.42902 19.9819L7.8332 18.7497L23.9998 27.0351L40.1666 18.7497ZM40.1666 26.7788L42.5708 28.0111C43.0442 28.2538 43.1978 28.7784 42.9138 29.183C42.8292 29.3031 42.7114 29.4037 42.5708 29.476L25.0288 38.4661C24.3954 38.7906 23.6042 38.7906 22.9708 38.4661L5.42902 29.476C4.95544 29.2332 4.80186 28.7086 5.08602 28.304C5.17046 28.1838 5.28826 28.0831 5.42902 28.0111L7.8332 26.7788L23.9998 35.0643L40.1666 26.7788ZM25.0288 3.04789L42.5708 12.0381C43.0442 12.2808 43.1978 12.8055 42.9138 13.21C42.8292 13.3302 42.7114 13.4309 42.5708 13.503L23.9998 23.0205L5.42902 13.503C4.95544 13.2603 4.80186 12.7356 5.08602 12.3311C5.17046 12.2108 5.28826 12.1102 5.42902 12.0381L22.9708 3.04789C23.6042 2.72329 24.3954 2.72329 25.0288 3.04789Z" fill="currentColor"/>
</svg>
